<svg xmlns="http://www.w3.org/2000/svg" viewBox="0 0 64 64" role="img" aria-label="Contentrain">
  <defs>
    <linearGradient id="g" x1="0" x2="1" y1="0" y2="1">
      <stop offset="0%" stop-color="#0f766e" />
      <stop offset="100%" stop-color="#14b8a6" />
    </linearGradient>
  </defs>
  <rect width="64" height="64" rx="18" fill="#071917" />
  <path d="M18 24c0-6 4.5-10 11.5-10H46v8H30.5c-2.7 0-4.5 1.5-4.5 4 0 2.6 1.8 4 4.5 4H40c7 0 12 4.6 12 11 0 7-5.2 11-13 11H18v-8h20.5c3.3 0 5.5-1.7 5.5-4.5S41.8 35 38.5 35h-8C23 35 18 30.5 18 24Z" fill="url(#g)"/>
</svg>
